# xmcd
#
# Track frame offsets: 
#        150
#        19552
#        42350
#        75757
#        103260
#        117062
#        131722
#        147605
#        163365
#        188055
#        203282
#        218230
#        235580
#        257545
#
# Disc length: 3608 seconds
#
# Revision: 6
# Processed by: cddbd v1.5.2PL0 Copyright (c) Steve Scherf et al.
# Submitted via: ExactAudioCopy v1.0b3
#
DISCID=b70e160e
DTITLE=Buena Vista Social Club - Buena Vista Social Club
DYEAR=1997
DGENRE=Latin
TTITLE0=Chan Chan
TTITLE1=De Camino A La Vereda
TTITLE2=El Cuarto De Tula
TTITLE3=Pueblo Nuevo
TTITLE4=Dos Gardenias
TTITLE5=Y Tú Qué Has Hecho
TTITLE6=Veinte Años
TTITLE7=El Carretero
TTITLE8=Candela
TTITLE9=Amor De Loca Juventud
TTITLE10=Orgullecida
TTITLE11=Murmullo
TTITLE12=Buena Vista Social Club
TTITLE13=La Bayamesa
EXTD=YEAR: 2000
EXTT0=
EXTT1=
EXTT2=
EXTT3=
EXTT4=
EXTT5=
EXTT6=
EXTT7=
EXTT8=
EXTT9=
EXTT10=
EXTT11=
EXTT12=
EXTT13=
PLAYORDER=
